<svg xmlns="http://www.w3.org/2000/svg" width="32" height="32" viewBox="0 0 32 32">
  <defs>
    <linearGradient id="gold" x1="0" y1="0" x2="0.6" y2="1">
      <stop offset="0" stop-color="#f4d878"/>
      <stop offset="0.45" stop-color="#d9b13b"/>
      <stop offset="1" stop-color="#9a7a1c"/>
    </linearGradient>
    <linearGradient id="edge" x1="0" y1="0" x2="0" y2="1">
      <stop offset="0" stop-color="#fff3c4"/>
      <stop offset="1" stop-color="#c9a227"/>
    </linearGradient>
  </defs>
  <ellipse cx="15" cy="29" rx="8" ry="1.8" fill="#000" opacity="0.16"/>
  <path d="M13.6 2.4 L17.1 10.4 L25.8 11.3 L19.3 17.1 L21.2 25.6 L13.6 21.2 L6.0 25.6 L7.9 17.1 L1.4 11.3 L10.1 10.4 Z"
        fill="url(#gold)" stroke="#3d3006" stroke-width="1.2" stroke-linejoin="round"/>
  <path d="M13.6 4.9 L15.9 10.9 L11.6 10.9 Z" fill="url(#edge)" opacity="0.9"/>
  <path d="M13.6 4.9 L13.6 19.9 L8.2 23.1 L9.6 16.6 L4.6 12.2 L11.3 11.5 Z" fill="#ffffff" opacity="0.18"/>
  <g fill="#fff8dd">
    <path d="M26.5 4.2 l0.8 2 2 0.8 -2 0.8 -0.8 2 -0.8 -2 -2 -0.8 2 -0.8 Z"/>
    <circle cx="24.2" cy="21.8" r="1.1"/>
  </g>
</svg>
